<svg xmlns="http://www.w3.org/2000/svg" viewBox="0 0 512 512">
    <defs>
        <symbol id="flower" viewBox="0 0 36 36">
            <path
                d="m34.75,22c-3.38,0 -11.9,3.55 -15.75,7.16l0,-12.16c0,-0.55 -0.45,-1 -1,-1c-0.55,0 -1,0.45 -1,1l0,12.34c-3.75,-3.67 -12.51,-7.34 -15.95,-7.34c-0.93,0 10.86,13.99 15.95,12.6l0,0.4c0,0.55 0.45,1 1,1c0.55,0 1,-0.45 1,-1l0,-0.36c5.19,1 16.67,-12.64 15.75,-12.64z"
                fill="#77B255" />
            <path d="m25,13.42c0,6.35 -1.71,9.58 -7,9.58s-7,-3.23 -7,-9.58s5,-13.42 7,-13.42s7,7.07 7,13.42z"
                fill="#EA596E" />
            <path
                d="m22.8,2c-0.48,0 -4.11,14.27 -4.81,19.28c-0.74,-5.01 -4.51,-19.28 -4.99,-19.28c-1,0 -6,9 -6,13s5.71,8 11,8s10.8,-4 10.8,-8s-5,-13 -6,-13z"
                fill="#F4ABBA" />
        </symbol>
    </defs>
    <use href="#flower" transform="translate(202 70) scale(3)" />
</svg>
